# xmcd
#
# Track frame offsets: 
#        150
#        11775
#        22310
#        32657
#        42777
#        54139
#        64475
#        75652
#        86042
#        96720
#        107150
#        119780
#        134125
#        144670
#
# Disc length: 2098 seconds
#
# Revision: 0
# Processed by: cddbd v1.4PL0 Copyright (c) Steve Scherf et al.
# Submitted via: ExactAudioCopy v0.90b3
#
DISCID=d408300e
DTITLE=Patsy Cline - The Best of Patsy Cline - Walkin' After Midnight
DYEAR=1998
DGENRE=Blues
TTITLE0=Walkin' After Midnight
TTITLE1=Gotta Lot Of Rhythm In My Soul
TTITLE2=I Love You Honey
TTITLE3=Three Cigarettes In An Ashtray
TTITLE4=Crazy Dreams
TTITLE5=How Can I Face Tomorrow
TTITLE6=Stop The World (And Let Me Off)
TTITLE7=He Will Do For Y ou What He Has Done For Me
TTITLE8=I Cried All The Way To The Altar
TTITLE9=Lovesick Blues
TTITLE10=Yes, I Understand
TTITLE11=Then Y ou'll Know
TTITLE12=I Don't Wanta
TTITLE13=Life's Railway To Heaven
EXTD=
EXTT0=
EXTT1=
EXTT2=
EXTT3=
EXTT4=
EXTT5=
EXTT6=
EXTT7=
EXTT8=
EXTT9=
EXTT10=
EXTT11=
EXTT12=
EXTT13=
PLAYORDER=
